<svg id="wave" style="transform:rotate(0deg); transition: 0.3s" viewBox="0 0 1440 490" version="1.1" xmlns="http://www.w3.org/2000/svg"><defs><linearGradient id="sw-gradient-0" x1="0" x2="0" y1="1" y2="0"><stop stop-color="rgba(243, 106, 62, 1)" offset="0%"></stop><stop stop-color="rgba(255, 179, 11, 1)" offset="100%"></stop></linearGradient></defs><path style="transform:translate(0, 0px); opacity:1" fill="url(#sw-gradient-0)" d="M0,98L40,106.2C80,114,160,131,240,122.5C320,114,400,82,480,89.8C560,98,640,147,720,138.8C800,131,880,65,960,73.5C1040,82,1120,163,1200,196C1280,229,1360,212,1440,228.7C1520,245,1600,294,1680,294C1760,294,1840,245,1920,245C2000,245,2080,294,2160,326.7C2240,359,2320,376,2400,318.5C2480,261,2560,131,2640,98C2720,65,2800,131,2880,163.3C2960,196,3040,196,3120,163.3C3200,131,3280,65,3360,32.7C3440,0,3520,0,3600,0C3680,0,3760,0,3840,32.7C3920,65,4000,131,4080,171.5C4160,212,4240,229,4320,212.3C4400,196,4480,147,4560,163.3C4640,180,4720,261,4800,310.3C4880,359,4960,376,5040,334.8C5120,294,5200,196,5280,138.8C5360,82,5440,65,5520,106.2C5600,147,5680,245,5720,294L5760,343L5760,490L5720,490C5680,490,5600,490,5520,490C5440,490,5360,490,5280,490C5200,490,5120,490,5040,490C4960,490,4880,490,4800,490C4720,490,4640,490,4560,490C4480,490,4400,490,4320,490C4240,490,4160,490,4080,490C4000,490,3920,490,3840,490C3760,490,3680,490,3600,490C3520,490,3440,490,3360,490C3280,490,3200,490,3120,490C3040,490,2960,490,2880,490C2800,490,2720,490,2640,490C2560,490,2480,490,2400,490C2320,490,2240,490,2160,490C2080,490,2000,490,1920,490C1840,490,1760,490,1680,490C1600,490,1520,490,1440,490C1360,490,1280,490,1200,490C1120,490,1040,490,960,490C880,490,800,490,720,490C640,490,560,490,480,490C400,490,320,490,240,490C160,490,80,490,40,490L0,490Z"></path></svg>
